<?xml version="1.0" encoding="UTF-8"?>
<svg version="1.1" viewBox="0 0 1200 1200" width="1280" height="1280" xmlns="http://www.w3.org/2000/svg">
<path transform="translate(596,359)" d="m0 0h31l25 3 23 5 18 6 12 5 15 7 8 4 1 39-4-1-20-12-21-10-24-8-19-4-15-2h-33l-22 3-21 5-18 6-16 8-11 6-16 11-11 9-12 11-12 13-12 16-12 21-5 11-7 18-6 24-2 11-1 11v34l3 22 6 23 4 12 7 15 9 17 7 10 9 12 11 12 11 11 14 11 15 10 12 7 21 9 18 6 20 4 18 2h32l23-3 24-6 20-8 16-8 16-10 14-11 13-12 7-7 9-11 11-15 12-21 8-19 7-23 4-22 1-9v-33l-4-27-6-22-10-24-10-18-5-7v-2h37l8 16 8 18 6 18 5 23 3 22v42l-4 27-6 24-10 27-10 19-8 14-12 17-12 14-5 6-11 9-12 10-15 10-18 10-19 9-20 7-18 5-17 3h-68l-22-4-24-7-20-8-20-10-21-14-16-13-7-7-4-3v-2l-3-1-7-8-13-16-14-22-10-19-9-23-5-18-5-25-2-26v-13l2-23 3-18 5-19 7-20 8-18 9-16 11-16 10-13 12-13 10-10 11-9 11-8 17-11 23-12 20-8 25-7 25-4z" fill="#c1bfbf"/>
<path transform="translate(593,462)" d="m0 0h32l18 4 15 5 16 7-1 5-19 19-6-1-18-6-6-1h-29l-17 4-16 7-12 8-10 9-10 11-8 14-5 12-4 16-1 11v10l2 15 4 13 5 11 7 12 11 13 12 10 14 8 8 4 19 5 11 1 21-1 18-5 16-8 13-9 12-12 7-10 8-16 5-16 2-16v-11l-3-18-6-16 1-5 19-19 4 1 9 20 5 17 2 11 1 18-2 20-3 14-7 19-9 16-10 13-5 6-8 7-11 9-17 10-18 7-16 4-16 2h-16l-25-4-13-4-15-7-14-9-6-4v-2l-4-2-7-6-7-8-9-12-9-16-6-15-5-22-1-11v-16l2-15 4-16 6-16 6-11 10-14 9-10 5-5 9-8 14-9 14-7 15-5 13-3z" fill="#cccaca"/>
<path transform="translate(824,312)" d="m0 0h1l-1 30v26l7 8 56 1-1 4-12 11-65 65-2 1-44 1-8 7-113 113v19l-4 10-8 9-12 6h-16l-8-3-6-4-7-8-4-9v-17l6-12 9-8 10-4 16-1 23-23h2l2-4 8-7 53-53h2l1-3 8-7 27-27 1-7v-35l69-69 7-8z" fill="#bfb8b8"/>
</svg>
