<?xml version="1.0" encoding="UTF-8"?>
<svg version="1.1" viewBox="0 0 1600 1600" width="1280" height="1280" xmlns="http://www.w3.org/2000/svg">
<path transform="translate(791,1184)" d="m0 0h34c-1.16 15-1.16 15-3.25 21.5-0.336 1.08-0.336 1.08-0.679 2.18-0.67 2.11-1.36 4.22-2.07 6.32-0.557 1.67-0.557 1.67-1.12 3.38-6.93 19.3-17.9 34.8-31.9 49.6-0.788 0.84-1.58 1.68-2.39 2.55-6.49 6.73-6.49 6.73-11.6 8.45v2c-19.2 14.4-42.2 23.9-66.3 24.2-0.727 0.0119-1.45 0.0237-2.2 0.0359-3.65 0.0509-7.29 0.0536-10.9-0.0169-8.18-0.0478-13.4 0.857-19.7 6.36-0.634 0.465-1.27 0.93-1.92 1.41-1.49-0.495-1.49-0.495-3-1 0.99-1.48 0.99-1.48 2-3 0.367-3.31 0.446-5.26-1.29-8.14-0.938-1.04-0.938-1.04-1.89-2.11-4.15-4.86-7.91-9.93-11.6-15.1-1.11-1.55-2.22-3.1-3.33-4.65-0.478-0.67-0.956-1.34-1.45-2.03-0.997-1.38-2.03-2.74-3.09-4.07-1.32-1.88-1.32-1.88-1.32-3.88h-2c-1.19-1.55-1.19-1.55-2.56-3.75-3.46-5.36-7.26-10.4-11.1-15.5-6.56-8.66-13.1-17.3-19.4-26.1-1.35-1.86-2.71-3.7-4.08-5.54-0.719-0.968-1.44-1.94-2.18-2.93-0.647-0.864-1.29-1.73-1.96-2.62-1.62-2.44-2.69-4.75-3.66-7.51h-2c-1.4-1.96-2.72-3.97-4-6-1.33-2-2.66-4-4-6 20.3-2.05 20.3-2.05 26 1.1 3.15 2.87 5.14 6.41 7.08 10.2 1.39 2.59 3.15 4.84 4.93 7.17 1.33 1.85 2.67 3.71 4 5.56 0.906 1.24 1.81 2.48 2.72 3.73 0.927 1.28 1.85 2.56 2.78 3.84 0.446 0.608 0.892 1.22 1.35 1.84 3.15 4.37 3.15 4.37 3.15 6.59h2c1.38 1.96 2.71 3.97 4 6 0.578 0.743 1.15 1.48 1.75 2.25 1.25 1.75 1.25 1.75 1.25 3.75h2c0.155 0.959 0.155 0.959 0.312 1.94 0.227 0.681 0.454 1.36 0.688 2.06 1.48 0.495 1.48 0.495 3 1 1.54 2.25 1.54 2.25 3.06 5 1.83 3.65 1.83 3.65 4.94 6 1.01 1.66 2 3.33 3 5 2.18 3.08 4.44 6.1 6.69 9.12 1.26 1.7 2.51 3.39 3.77 5.09 0.607 0.818 1.21 1.64 1.84 2.48 3.26 4.41 6.49 8.86 9.7 13.3 15.4-0.785 31.4-9.28 44-18 0.88-0.599 1.76-1.2 2.67-1.82 0.831-0.576 1.66-1.15 2.52-1.75 0.839-0.579 1.68-1.16 2.54-1.75 2.26-1.58 2.26-1.58 3.95-3.4 1.32-1.29 1.32-1.29 3.32-1.29v-2c1.36-1.26 1.36-1.26 3.19-2.69 3.1-2.56 5.32-5.12 7.48-8.5 1.34-1.81 1.34-1.81 3.71-4.13 17.1-17.5 22.9-42.9 28.6-65.7z" fill="#ced2d2"/>
<path transform="translate(668,1019)" d="m0 0c3.68 0.986 6.31 2.15 9.22 4.55 3.79 2.76 7.17 3.13 11.8 3.02 0.751 0.00563 1.5 0.0113 2.28 0.0171 2.39 0.0163 4.78 0.00106 7.17-0.021 30.8-0.22 57 10.6 80.6 30.4 0.861 0.672 1.72 1.34 2.61 2.04 2.18 1.79 3.95 3.57 5.77 5.71 2.66 3.12 2.66 3.12 5.38 6.2 17.5 19.4 32.2 48.5 32.2 75.1h-34c-0.66-3.3-1.32-6.6-2-10-0.629-2.01-1.29-4.02-2-6-0.585-2-1.17-4-1.75-6-2.75-8.93-6.03-17.8-11.1-25.7-2.12-3.31-2.12-3.31-2.12-6.31h-2c-1.02-1.52-1.96-3.1-2.88-4.69-3.01-4.88-6.35-9.06-10.2-13.2-0.503-0.543-1.01-1.09-1.52-1.65-2.31-2.44-4.57-4.59-7.22-6.67-0.704-0.576-1.41-1.15-2.13-1.75v-2c-0.804-0.268-1.61-0.536-2.44-0.812-0.846-0.392-1.69-0.784-2.56-1.19-0.33-0.99-0.66-1.98-1-3-1.64-0.723-3.31-1.38-5-2-1.34-0.859-2.65-1.76-3.94-2.69-12.3-8.39-26.5-14.3-41.1-17.3-2.07 2.66-4.13 5.33-6.19 8-0.578 0.744-1.16 1.49-1.75 2.25-3.24 4.21-6.22 8.44-8.91 13-1.21 1.83-2.58 3.2-4.15 4.73-0.829 1.04-1.63 2.11-2.42 3.19-0.445 0.61-0.891 1.22-1.35 1.85-0.469 0.648-0.937 1.3-1.42 1.96-0.491 0.674-0.982 1.35-1.49 2.04-2.14 2.94-4.27 5.88-6.4 8.83-3.92 5.42-7.9 10.8-11.9 16.1-5.84 7.76-11.6 15.6-17.2 23.5-0.574 0.803-1.15 1.61-1.74 2.43-1.14 1.59-2.27 3.19-3.4 4.79-1.52 2.12-3.08 4.2-4.65 6.28-0.722 0.996-1.44 1.99-2.19 3.02-4.45 3.13-8.84 2.51-14.1 2.29-1.03-0.0226-2.05-0.0451-3.11-0.0684-2.53-0.0588-5.05-0.141-7.58-0.244 1.52-4.52 4.03-8.05 6.88-11.8 0.477-0.643 0.955-1.29 1.45-1.95 2.66-3.57 5.35-7.12 8.04-10.7 0.545-0.721 1.09-1.44 1.65-2.19 1.06-1.4 2.12-2.8 3.19-4.19 0.482-0.636 0.965-1.27 1.46-1.93 0.427-0.559 0.855-1.12 1.3-1.69 1.23-1.71 1.23-1.71 2.04-4.57 0.701-0.66 1.4-1.32 2.12-2 3.57-3.36 5.83-7.59 8.32-11.8 0.512-0.736 1.02-1.47 1.55-2.23h2c0.257-0.728 0.513-1.46 0.777-2.21 1.28-2.92 2.78-5.01 4.79-7.48 2.46-3 2.46-3 4.44-6.31h2c0.227-0.681 0.454-1.36 0.688-2.06 1.62-3.64 3.64-6.97 6.31-9.94h2c0.245-0.709 0.49-1.42 0.742-2.15 1.43-3.24 3.22-5.68 5.38-8.48 1.19-1.57 1.19-1.57 2.41-3.17 1.6-2.08 3.21-4.15 4.84-6.22 0.723-0.944 1.45-1.89 2.19-2.86 0.992-1.26 0.992-1.26 2-2.55 1.75-3.13 1.85-5.03 1.43-8.57-0.99-1.49-0.99-1.49-2-3z" fill="#ced2d2"/>
<path transform="translate(840,1140)" d="m0 0c3.2 1.6 5.5 3.04 8.26 5.22 0.79 0.621 1.58 1.24 2.39 1.88 1.22 0.97 1.22 0.97 2.47 1.96 1.63 1.28 3.25 2.57 4.88 3.85 0.718 0.569 1.44 1.14 2.18 1.72 1.77 1.42 1.77 1.42 3.82 2.37v2c1.11 0.402 1.11 0.402 2.25 0.812 2.62 1.13 4.55 2.4 6.75 4.19-0.33 1.32-0.66 2.64-1 4-1.98 0.495-1.98 0.495-4 1v2c-1.96 1.38-3.97 2.71-6 4-1.11 0.866-1.11 0.866-2.25 1.75-1.75 1.25-1.75 1.25-3.75 1.25v2c-0.639 0.103-1.28 0.206-1.94 0.312-0.681 0.227-1.36 0.454-2.06 0.688-0.33 0.99-0.66 1.98-1 3-3.53 2.57-7.27 4.73-11 7-0.33-5.94-0.66-11.9-1-18-31-0.0912-62-0.162-93-0.204-3.66-5e-3 -7.32-0.0102-11-0.0155-1.09-0.00157-1.09-0.00157-2.21-0.00318-11.8-0.0174-23.6-0.049-35.4-0.0857-12.1-0.0374-24.2-0.0596-36.3-0.0677-7.47-0.00549-14.9-0.0228-22.4-0.0553-5.73-0.0236-11.5-0.0262-17.2-0.0208-2.35-0.0011-4.7-0.00909-7.05-0.0244-3.2-0.0198-6.41-0.0151-9.61-0.0042-0.935-0.0117-1.87-0.0233-2.83-0.0353-4.19 0.0388-6.43 0.139-10.1 2.41-2.01 2.04-2.01 2.04-3.48 4.33-1.5 1.78-1.5 1.78-3.8 2.26-0.899-0.00888-1.8-0.0178-2.73-0.0269-1.02-3.02e-4 -2.04-6.04e-4 -3.09-9.16e-4 -1.1-0.0206-2.2-0.0413-3.33-0.0626-1.13-0.00566-2.26-0.0113-3.42-0.0172-3.61-0.0224-7.21-0.0726-10.8-0.123-2.44-0.0201-4.89-0.0383-7.33-0.0547-5.99-0.0441-12-0.111-18-0.195v-2c1.98-0.495 1.98-0.495 4-1v-2c1.64-1.66 1.64-1.66 3.81-3.5 0.708-0.608 1.42-1.22 2.14-1.84 2.04-1.66 2.04-1.66 5.04-3.66-0.327-3.04-0.957-3.96-3.25-6.07-0.908-0.678-1.82-1.36-2.75-2.05-4.91-3.7-4.91-3.7-6-5.88-0.99-0.33-1.98-0.66-3-1 0.33-0.99 0.66-1.98 1-3 7.17-0.0345 14.3-0.0147 21.5 0.0427 2.44 0.0131 4.88 0.0139 7.32 0.00195 3.51-0.015 7.01 0.0146 10.5 0.053 1.09-0.0143 2.18-0.0285 3.3-0.0432 7.49 0.143 7.49 0.143 10 2.53 1.29 1.91 1.29 1.91 2.23 3.82 0.946 1.76 0.946 1.76 2.87 2.19 2.22 0.411 4.23 0.532 6.49 0.531 0.854 0.00199 1.71 0.00398 2.59 0.00603 0.934-0.00291 1.87-0.00583 2.83-0.00883 0.996 8.54e-4 1.99 0.00171 3.02 0.00259 3.35 0.00165 6.69-0.00386 10-0.00932 2.39-2.82e-4 4.79-1.24e-4 7.18 4.43e-4 5.83 2.58e-4 11.7-0.00408 17.5-0.0104 6.79-0.00715 13.6-0.00864 20.4-0.00979 12.1-0.00219 24.2-0.00884 36.3-0.0183 11.8-0.00918 23.5-0.0163 35.3-0.0205 1.09-3.94e-4 1.09-3.94e-4 2.2-7.96e-4 3.64-0.00131 7.27-0.00257 10.9-0.00381 30.2-0.0104 60.3-0.0281 90.5-0.0503v-18z" fill="#ced2d2"/>
</svg>
