<?xml version="1.0" encoding="UTF-8"?>
<svg version="1.1" viewBox="0 0 1200 1200" width="1280" height="1280" xmlns="http://www.w3.org/2000/svg">
<path transform="translate(495,440)" d="m0 0h26l29 3 16 3 15 4 14 4 21 8 16 8 18 10 22 16 8 7-1 3h-2l-1 3-8 7-4 5-8 7-7 8-5-2-9-8-13-9-13-8-3-1v-2l-5-1-15-7-15-6-24-6-12-2-11-1h-35l-17 2-19 4-16 5-23 10-14 8-9 5-12 9-14 12-3 3h-2v2l-4 4h-2l-2 4-8 10h-2l-2 4-14 21-6 10-9 20-5 13-6 23-3 18-1 12v32l2 18 4 20 6 21 10 24 8 15 5 7 4 7 11 14v2h2l6 7v2l3 1v2l3 1v2h2v2l4 2 9 8 16 12 17 10 16 8 16 6 21 6 9 2 27 3h19l26-3 26-6 16-6 18-8 20-12 12-8 4-4 11-9 13-13 11-14 9-12 7-11 7-14 7-15 6-17 6-26 3-23v-33l-3-25-6-24-8-21-9-19-14-22-8-10-2-5 32-32 4 2 1 3h2l11 14 10 14 9 15 7 12 6 14 5 12 8 24 5 23 3 24v36l-3 25-6 25-9 27-8 18-10 18-14 21-13 16-11 12-11 11h-2v2l-11 9-13 10-18 11-14 8-16 8-36 12-24 5-24 3h-39l-25-3-25-5-36-12-30-15-18-11-13-10-10-8-10-9-6-5-7-8-2-4h-2l-3-4v-2h-2l-13-18-9-14-6-11-8-16-6-15-6-19-5-22-3-21-1-15v-25l2-24 5-26 6-20 6-16 8-18 9-16 10-15 9-12 13-15 15-15 22-18 17-11 15-9 19-9 15-6 27-8 25-5z" fill="#9B2C2C"/>
<path transform="translate(502,364)" d="m0 0h12l22 1 33 4 26 6 20 6 19 7 8 4 10 4 15 8 11 6 11 7 9 6 19 14 14 12 1 4-6 5-1 2h-2v2l-4-1v-2l-4-2-13-11-18-13-26-16-16-8-23-10-12-4-23-7-12-3-17-3-28-3h-37l-29 3-29 6-15 4-21 7-21 9-16 8-18 10-8 5h-2v2l-11 7-18 14-12 11-5 4-5 5-2 3h-2l-1 3h-2l-2 4-10 11-10 13-9 13-12 19-8 15-9 20-6 15-9 30-4 20-4 26-1 37 1 27 3 23 6 27 5 17 6 18 6 15 13 26 12 20 13 18 8 10v2h2l9 11 20 20 11 9 10 8 14 10 17 11 12 6 15 8 19 8 20 7 21 6 23 5 24 3 22 1h18l19-1 23-3 28-6 30-10 13-5 28-14 15-9 15-10 13-10 11-9 13-12 11-11 1-2h2l2-4 6-7h2l2-5 9-11 9-13 7-11 9-15 9-19 6-13 11-33 6-25 3-17 2-16 1-14v-30l-1-16-3-22-4-20-6-22-6-19-10-22-8-16-9-16-10-15-18-24-8-8 2-4 8-8 4 2 10 11 3 4v2h2l13 18 11 17 13 24 9 19 6 15 9 28 3 11 6 33 2 19 1 19v11l-2 28-3 22-4 22-7 24-9 24-9 20-11 21-14 22-13 17-9 11-11 12-7 8-8 7-7 7-6 5h-2v2l-20 15-18 12-19 11-16 8-11 5-20 8-19 6-31 7-20 3-20 2h-39l-35-4-25-5-15-4-27-9-17-7-21-10-21-12-18-12-12-9-13-11-8-7-7-6-4-5-5-4-7-8-12-14-14-19-13-21-6-10-11-23-9-23-6-19-6-25-3-16-3-27v-49l4-33 5-24 7-24 7-20 12-26 6-12 14-23 13-18 12-14 8-10h2l1-3h2l1-3h2l1-3h2l1-3h2l1-3h2v-2l11-9 7-6h2v-2l18-13 11-7 16-10 28-14 13-5 19-7 20-6 27-6 33-4z" fill="#9C2E2E"/>
<path transform="translate(494,567)" d="m0 0h26l20 3 20 6 17 8 12 8v4l-4 2-2 4h-2l-2 4-3 3h-2l-2 4-3 1v2h-2l-2 4-6 6-5-2-12-7-13-5-16-3h-14l-18 4-11 5-12 7-12 11-8 10-8 14-5 14-2 9-1 11v9l2 14 3 12 6 15 8 12v2h2l7 8 5 4v2l4 2 10 6 12 5 11 3 7 1h16l15-3 16-7 11-7 10-9 9-11 8-15 5-15 2-13v-20l-3-16-4-12-6-11v-4l33-33 5 5 10 14 8 16 6 17 4 18v32l-4 18-6 17-8 16-10 14-12 13-10 9-14 10-16 8-16 6-16 4-9 1h-31l-13-2-19-5-15-6-13-7-14-10-10-9-8-8-9-12-8-14-6-14-5-17-3-23v-12l3-23 7-21 7-14 8-12 7-9h2l2-4 5-5h2v-2l13-10 7-5 16-8 13-5 9-3 15-3z" fill="#9B2C2C"/>
<path transform="translate(808,303)" d="m0 0h3l11 35 8 24 7-6 29-29 7 6 4 4-2 4h-2v2l-8 7-4 5-5 4-4 5h-2l-1 3h-2v2l-5 5 40 13 14 5 6 2-1 2h-2v2l-5 4-4 5-5 4-4 5h-2l-1 3h-2l-1 3h-2l-1 3h-2v2l-5 4-4 5-5 4-4 5h-2l-1 3h-2l-1 3h-2l-1 3h-2v2l-5 4-4 5-5 4-4 5-6-1-37-12-20-7v2l-5 4-4 5-5 4-4 5-3 3h-2l-1 3h-2l-1 3h-2v2l-5 4-4 5-5 4-4 5h-2l-1 3h-2l-1 3h-2l-1 3h-2l-1 3h-2v2l-5 4-4 5-5 4-1 2h-2l-1 3h-2l-1 3-7 6-4 5-5 4-4 5-3 3h-2l-1 3h-2l-1 3h-2v2l-5 4-4 5-5 4-4 5h-2l-1 3h-2l-1 3h-2l-1 3h-2l-1 3h-2l-1 3h-2l-1 3h-2l-1 3h-2l-1 3h-2v2l-3 3h-2l-1 3h-2l-1 3h-2l-1 3h-2v2l-5 4-4 5-4 4h-2v2h-2l-1 3h-2l-1 3h-2l-1 3h-2l-1 3h-2v2l-4 4h-2v2l-5 4-4 5h-2l-1 3h-2l-1 3h-2l-1 3h-2l-1 3h-2l-1 3h-2l-1 3h-2l-1 3h-2l-1 3h-2v2l-3 3h-2l-1 3-4-1-8-8 2-4 246-246-2-9-5-14-4-14-8-23 2-4 7-8 8-7 54-54z" fill="#9B2C2C"/>
</svg>
